<svg width="32" height="43" viewBox="0 0 32 43" fill="none" xmlns="http://www.w3.org/2000/svg">
<g clip-path="url(#clip0_250_11419)">
<path d="M14.3557 41.6256C2.2475 24.148 0 22.3543 0 15.931C0 7.13254 7.16342 0 16 0C24.8366 0 32 7.13254 32 15.931C32 22.3543 29.7525 24.148 17.6443 41.6256C16.8498 42.7685 15.1502 42.7684 14.3557 41.6256ZM16 22.569C19.6819 22.569 22.6667 19.5971 22.6667 15.931C22.6667 12.265 19.6819 9.2931 16 9.2931C12.3181 9.2931 9.33333 12.265 9.33333 15.931C9.33333 19.5971 12.3181 22.569 16 22.569Z" fill="#1A4067"/>
</g>
<defs>
<clipPath id="clip0_250_11419">
<rect width="32" height="42.4828" fill="white"/>
</clipPath>
</defs>
</svg>
